<svg xmlns="http://www.w3.org/2000/svg" width="60.999" height="61" viewBox="0 0 60.999 61">
  <path id="cart3" d="M0,3.033A2.033,2.033,0,0,1,2.033,1h6.1a2.033,2.033,0,0,1,1.972,1.541l1.647,6.592H58.967a2.033,2.033,0,0,1,1.993,2.432L56.893,31.9A2.033,2.033,0,0,1,55,33.529L16.787,35.449l1.167,6.218H52.867a2.033,2.033,0,1,1,0,4.067h-36.6a2.033,2.033,0,0,1-2-1.659L8.174,11.6,6.547,5.067H2.033A2.033,2.033,0,0,1,0,3.033ZM12.615,13.2l3.416,18.215,37.186-1.867L56.486,13.2Zm7.719,32.533a8.133,8.133,0,1,0,8.133,8.133A8.133,8.133,0,0,0,20.333,45.733Zm28.467,0a8.133,8.133,0,1,0,8.133,8.133A8.133,8.133,0,0,0,48.8,45.733ZM20.333,49.8a4.067,4.067,0,1,1-4.067,4.067A4.067,4.067,0,0,1,20.333,49.8Zm28.467,0a4.067,4.067,0,1,1-4.067,4.067A4.067,4.067,0,0,1,48.8,49.8Z" transform="translate(0 -1)" fill="#fff"/>
</svg>
