<svg xmlns="http://www.w3.org/2000/svg" width="272.249" height="272.231" viewBox="0 0 272.249 272.231">
  <path id="cart3" d="M0,10.041A9.041,9.041,0,0,1,9.041,1H36.164a9.041,9.041,0,0,1,8.77,6.853l7.323,29.311H262.19a9.041,9.041,0,0,1,8.86,10.813l-18.082,90.41a9.041,9.041,0,0,1-8.408,7.251L74.643,154.173l5.19,27.647H235.067a9.041,9.041,0,1,1,0,18.082H72.328a9.041,9.041,0,0,1-8.878-7.377L36.345,48.14,29.112,19.082H9.041A9.041,9.041,0,0,1,0,10.041ZM56.091,55.246l15.189,80.989,165.342-8.3,14.538-72.69ZM90.41,199.9a36.164,36.164,0,1,0,36.164,36.164A36.164,36.164,0,0,0,90.41,199.9Zm126.574,0a36.164,36.164,0,1,0,36.164,36.164A36.164,36.164,0,0,0,216.985,199.9ZM90.41,217.985a18.082,18.082,0,1,1-18.082,18.082A18.082,18.082,0,0,1,90.41,217.985Zm126.574,0A18.082,18.082,0,1,1,198.9,236.067,18.082,18.082,0,0,1,216.985,217.985Z" transform="translate(0.5 -0.5)" fill="#5d6a65" stroke="#5d6a65" stroke-width="1"/>
</svg>
