<svg id="box2-fill" xmlns="http://www.w3.org/2000/svg" width="326.813" height="326.813" viewBox="0 0 326.813 326.813">
  <path id="box2-fill-2" data-name="box2-fill" d="M76.6,0A20.426,20.426,0,0,0,60.256,8.17L2.043,85.789A10.213,10.213,0,0,0,0,91.916V306.388a20.426,20.426,0,0,0,20.426,20.426H306.388a20.426,20.426,0,0,0,20.426-20.426V91.916a10.213,10.213,0,0,0-2.043-6.128L266.557,8.17A20.426,20.426,0,0,0,250.217,0ZM306.388,95.327v6.8H20.426v-6.8L30.639,81.7H153.194V20.426H173.62V81.7H296.175Z" fill="#5d6a65"/>
</svg>
