<svg id="person-circle" xmlns="http://www.w3.org/2000/svg" width="371.153" height="371.153" viewBox="0 0 371.153 371.153">
  <path id="Path_3" data-name="Path 3" d="M144.182,72.591A69.591,69.591,0,1,1,74.591,3,69.591,69.591,0,0,1,144.182,72.591Z" transform="translate(110.985 66.591)"/>
  <path id="Path_4" data-name="Path 4" d="M0,185.577C0,83.085,83.085,0,185.577,0S371.153,83.085,371.153,185.577,288.068,371.153,185.577,371.153,0,288.068,0,185.577ZM185.577,23.2A162.38,162.38,0,0,0,58.735,286.948c16.47-26.538,52.727-54.977,126.842-54.977s110.349,28.416,126.842,54.977A162.38,162.38,0,0,0,185.577,23.2Z" fill-rule="evenodd"/>
</svg>
